<svg id="visual" viewBox="0 0 900 100" width="900" height="100" xmlns="http://www.w3.org/2000/svg" xmlns:xlink="http://www.w3.org/1999/xlink" version="1.1"><rect x="0" y="0" width="900" height="100" fill="#202731"></rect><path d="M0 46L10.7 46.5C21.3 47 42.7 48 64.2 46.8C85.7 45.7 107.3 42.3 128.8 42C150.3 41.7 171.7 44.3 193 43.2C214.3 42 235.7 37 257 34.5C278.3 32 299.7 32 321.2 35C342.7 38 364.3 44 385.8 47.3C407.3 50.7 428.7 51.3 450 50.2C471.3 49 492.7 46 514.2 44C535.7 42 557.3 41 578.8 42.3C600.3 43.7 621.7 47.3 643 46.8C664.3 46.3 685.7 41.7 707 40.3C728.3 39 749.7 41 771.2 40.8C792.7 40.7 814.3 38.3 835.8 37.3C857.3 36.3 878.7 36.7 889.3 36.8L900 37L900 101L889.3 101C878.7 101 857.3 101 835.8 101C814.3 101 792.7 101 771.2 101C749.7 101 728.3 101 707 101C685.7 101 664.3 101 643 101C621.7 101 600.3 101 578.8 101C557.3 101 535.7 101 514.2 101C492.7 101 471.3 101 450 101C428.7 101 407.3 101 385.8 101C364.3 101 342.7 101 321.2 101C299.7 101 278.3 101 257 101C235.7 101 214.3 101 193 101C171.7 101 150.3 101 128.8 101C107.3 101 85.7 101 64.2 101C42.7 101 21.3 101 10.7 101L0 101Z" fill="#6979fa"></path><path d="M0 54L10.7 55.5C21.3 57 42.7 60 64.2 60.2C85.7 60.3 107.3 57.7 128.8 56.2C150.3 54.7 171.7 54.3 193 54.8C214.3 55.3 235.7 56.7 257 57.7C278.3 58.7 299.7 59.3 321.2 57.8C342.7 56.3 364.3 52.7 385.8 50.5C407.3 48.3 428.7 47.7 450 47.8C471.3 48 492.7 49 514.2 51.3C535.7 53.7 557.3 57.3 578.8 57.5C600.3 57.7 621.7 54.3 643 52.5C664.3 50.7 685.7 50.3 707 51.3C728.3 52.3 749.7 54.7 771.2 56.8C792.7 59 814.3 61 835.8 59.3C857.3 57.7 878.7 52.3 889.3 49.7L900 47L900 101L889.3 101C878.7 101 857.3 101 835.8 101C814.3 101 792.7 101 771.2 101C749.7 101 728.3 101 707 101C685.7 101 664.3 101 643 101C621.7 101 600.3 101 578.8 101C557.3 101 535.7 101 514.2 101C492.7 101 471.3 101 450 101C428.7 101 407.3 101 385.8 101C364.3 101 342.7 101 321.2 101C299.7 101 278.3 101 257 101C235.7 101 214.3 101 193 101C171.7 101 150.3 101 128.8 101C107.3 101 85.7 101 64.2 101C42.7 101 21.3 101 10.7 101L0 101Z" fill="#d183da"></path><path d="M0 69L10.7 69.2C21.3 69.3 42.7 69.7 64.2 71C85.7 72.3 107.3 74.7 128.8 74.2C150.3 73.7 171.7 70.3 193 69.7C214.3 69 235.7 71 257 70.5C278.3 70 299.7 67 321.2 65.5C342.7 64 364.3 64 385.8 64.3C407.3 64.7 428.7 65.3 450 67C471.3 68.7 492.7 71.3 514.2 72.3C535.7 73.3 557.3 72.7 578.8 73C600.3 73.3 621.7 74.7 643 73.8C664.3 73 685.7 70 707 69.2C728.3 68.3 749.7 69.7 771.2 70.2C792.7 70.7 814.3 70.3 835.8 71.5C857.3 72.7 878.7 75.3 889.3 76.7L900 78L900 101L889.3 101C878.7 101 857.3 101 835.8 101C814.3 101 792.7 101 771.2 101C749.7 101 728.3 101 707 101C685.7 101 664.3 101 643 101C621.7 101 600.3 101 578.8 101C557.3 101 535.7 101 514.2 101C492.7 101 471.3 101 450 101C428.7 101 407.3 101 385.8 101C364.3 101 342.7 101 321.2 101C299.7 101 278.3 101 257 101C235.7 101 214.3 101 193 101C171.7 101 150.3 101 128.8 101C107.3 101 85.7 101 64.2 101C42.7 101 21.3 101 10.7 101L0 101Z" fill="#f4a1c4"></path><path d="M0 80L10.7 80C21.3 80 42.7 80 64.2 79.7C85.7 79.3 107.3 78.7 128.8 78.2C150.3 77.7 171.7 77.3 193 79C214.3 80.7 235.7 84.3 257 85.7C278.3 87 299.7 86 321.2 86.5C342.7 87 364.3 89 385.8 89.2C407.3 89.3 428.7 87.7 450 86C471.3 84.3 492.7 82.7 514.2 81.2C535.7 79.7 557.3 78.3 578.8 78C600.3 77.7 621.7 78.3 643 80.5C664.3 82.7 685.7 86.3 707 86.8C728.3 87.3 749.7 84.7 771.2 84.5C792.7 84.3 814.3 86.7 835.8 86C857.3 85.3 878.7 81.7 889.3 79.8L900 78L900 101L889.3 101C878.7 101 857.3 101 835.8 101C814.3 101 792.7 101 771.2 101C749.7 101 728.3 101 707 101C685.7 101 664.3 101 643 101C621.7 101 600.3 101 578.8 101C557.3 101 535.7 101 514.2 101C492.7 101 471.3 101 450 101C428.7 101 407.3 101 385.8 101C364.3 101 342.7 101 321.2 101C299.7 101 278.3 101 257 101C235.7 101 214.3 101 193 101C171.7 101 150.3 101 128.8 101C107.3 101 85.7 101 64.2 101C42.7 101 21.3 101 10.7 101L0 101Z" fill="#f7caca"></path></svg>