<svg id="visual" viewBox="0 0 960 75" width="960" height="75" xmlns="http://www.w3.org/2000/svg" xmlns:xlink="http://www.w3.org/1999/xlink" version="1.1"><rect x="0" y="0" width="960" height="75" fill="#202731"></rect><path d="M0 24L11.5 24.5C23 25 46 26 68.8 25C91.7 24 114.3 21 137.2 20.7C160 20.3 183 22.7 205.8 21.5C228.7 20.3 251.3 15.7 274.2 13.3C297 11 320 11 342.8 14C365.7 17 388.3 23 411.2 26.2C434 29.3 457 29.7 480 28.5C503 27.3 526 24.7 548.8 22.7C571.7 20.7 594.3 19.3 617.2 20.5C640 21.7 663 25.3 685.8 25C708.7 24.7 731.3 20.3 754.2 19C777 17.7 800 19.3 822.8 19.2C845.7 19 868.3 17 891.2 16C914 15 937 15 948.5 15L960 15L960 76L948.5 76C937 76 914 76 891.2 76C868.3 76 845.7 76 822.8 76C800 76 777 76 754.2 76C731.3 76 708.7 76 685.8 76C663 76 640 76 617.2 76C594.3 76 571.7 76 548.8 76C526 76 503 76 480 76C457 76 434 76 411.2 76C388.3 76 365.7 76 342.8 76C320 76 297 76 274.2 76C251.3 76 228.7 76 205.8 76C183 76 160 76 137.2 76C114.3 76 91.7 76 68.8 76C46 76 23 76 11.5 76L0 76Z" fill="#6979fa"></path><path d="M0 32L11.5 33.3C23 34.7 46 37.3 68.8 37.3C91.7 37.3 114.3 34.7 137.2 33.3C160 32 183 32 205.8 32.7C228.7 33.3 251.3 34.7 274.2 35.7C297 36.7 320 37.3 342.8 35.8C365.7 34.3 388.3 30.7 411.2 28.5C434 26.3 457 25.7 480 25.8C503 26 526 27 548.8 29.2C571.7 31.3 594.3 34.7 617.2 34.8C640 35 663 32 685.8 30.3C708.7 28.7 731.3 28.3 754.2 29.2C777 30 800 32 822.8 34.2C845.7 36.3 868.3 38.7 891.2 37.2C914 35.7 937 30.3 948.5 27.7L960 25L960 76L948.5 76C937 76 914 76 891.2 76C868.3 76 845.7 76 822.8 76C800 76 777 76 754.2 76C731.3 76 708.7 76 685.8 76C663 76 640 76 617.2 76C594.3 76 571.7 76 548.8 76C526 76 503 76 480 76C457 76 434 76 411.2 76C388.3 76 365.7 76 342.8 76C320 76 297 76 274.2 76C251.3 76 228.7 76 205.8 76C183 76 160 76 137.2 76C114.3 76 91.7 76 68.8 76C46 76 23 76 11.5 76L0 76Z" fill="#d183da"></path><path d="M0 45L11.5 45.2C23 45.3 46 45.7 68.8 47.2C91.7 48.7 114.3 51.3 137.2 51C160 50.7 183 47.3 205.8 46.5C228.7 45.7 251.3 47.3 274.2 46.8C297 46.3 320 43.7 342.8 42.3C365.7 41 388.3 41 411.2 41.3C434 41.7 457 42.3 480 43.8C503 45.3 526 47.7 548.8 48.5C571.7 49.3 594.3 48.7 617.2 49.2C640 49.7 663 51.3 685.8 50.7C708.7 50 731.3 47 754.2 46C777 45 800 46 822.8 46.5C845.7 47 868.3 47 891.2 48.2C914 49.3 937 51.7 948.5 52.8L960 54L960 76L948.5 76C937 76 914 76 891.2 76C868.3 76 845.7 76 822.8 76C800 76 777 76 754.2 76C731.3 76 708.7 76 685.8 76C663 76 640 76 617.2 76C594.3 76 571.7 76 548.8 76C526 76 503 76 480 76C457 76 434 76 411.2 76C388.3 76 365.7 76 342.8 76C320 76 297 76 274.2 76C251.3 76 228.7 76 205.8 76C183 76 160 76 137.2 76C114.3 76 91.7 76 68.8 76C46 76 23 76 11.5 76L0 76Z" fill="#f4a1c4"></path><path d="M0 56L11.5 56C23 56 46 56 68.8 55.7C91.7 55.3 114.3 54.7 137.2 54.2C160 53.7 183 53.3 205.8 55C228.7 56.7 251.3 60.3 274.2 61.5C297 62.7 320 61.3 342.8 61.7C365.7 62 388.3 64 411.2 64.2C434 64.3 457 62.7 480 61.2C503 59.7 526 58.3 548.8 57C571.7 55.7 594.3 54.3 617.2 54.2C640 54 663 55 685.8 57.2C708.7 59.3 731.3 62.7 754.2 63C777 63.3 800 60.7 822.8 60.3C845.7 60 868.3 62 891.2 61.5C914 61 937 58 948.5 56.5L960 55L960 76L948.5 76C937 76 914 76 891.2 76C868.3 76 845.7 76 822.8 76C800 76 777 76 754.2 76C731.3 76 708.7 76 685.8 76C663 76 640 76 617.2 76C594.3 76 571.7 76 548.8 76C526 76 503 76 480 76C457 76 434 76 411.2 76C388.3 76 365.7 76 342.8 76C320 76 297 76 274.2 76C251.3 76 228.7 76 205.8 76C183 76 160 76 137.2 76C114.3 76 91.7 76 68.8 76C46 76 23 76 11.5 76L0 76Z" fill="#f7caca"></path></svg>